<?xml version="1.0" standalone="no"?><!DOCTYPE svg PUBLIC "-//W3C//DTD SVG 1.1//EN" "http://www.w3.org/Graphics/SVG/1.1/DTD/svg11.dtd"><svg t="1541256302212" class="icon" style="" viewBox="0 0 1024 1024" version="1.1" xmlns="http://www.w3.org/2000/svg" p-id="4182" xmlns:xlink="http://www.w3.org/1999/xlink" width="200" height="200"><defs><style type="text/css"></style></defs><path d="M399.84014222 615.936c-22.81585778 0-43.80785778 18.78357333-44.16056889 39.48771555-0.28785778 17.664 14.56014222 31.10456889 34.46442667 31.1045689 23.68056889 0.03185778 43.48814222-17.79256889 43.64743111-39.23171556 0.16042667-18.27157333-14.11185778-31.36056889-33.95242666-31.36056889z" p-id="4183" fill="#ff8140"></path><path d="M456.60842667 600.19256889c-6.78343111 3.328-13.312 8.22385778-17.98371556 14.14371556-0.99214222 1.28 5.95171555 8.83256889 11.58371556 16.92785777 7.23171555-7.936 13.76028445-12.51214222 16.15985778-18.688 1.05585778-2.65557333-8.64028445-12.96042667-9.75985778-12.38357333z" p-id="4184" fill="#ff8140"></path><path d="M599.90357333 510.43214222c-11.008-6.88014222-22.84771555-12.63957333-34.94343111-17.53543111-40.47985778-16.19171555-82.944-20.992-126.11242667-17.21571556-65.28 5.66385778-125.56743111 24.89571555-172.44842666 73.31157334-54.36757333 56.09585778-47.00842667 127.10343111 16.99157333 171.61557333 43.32771555 30.08056889 92.51157333 40.41614222 144.47957333 39.168 9.44014222 0 18.91214222 0.73614222 28.2885689-0.12856889 59.16785778-5.66385778 113.664-23.61571555 158.81557333-63.64842666 65.98428445-58.39985778 59.36014222-138.81571555-15.07214223-185.56814222zM526.68757333 675.328c-22.46428445 34.048-62.23985778 54.72028445-105.44014222 54.94442667-54.46428445 0.35157333-95.32757333-30.23985778-102.56042666-77.824-1.59971555-9.728-1.15256889-20.41628445 1.05585777-29.952 10.97614222-46.68757333 43.29585778-72.76771555 87.296-84.54371556 43.45628445-11.52 83.87242667-4.00042667 115.48785778 30.52771556 26.17571555 28.57642667 27.23157333 72.12828445 4.15971555 106.84757333z" p-id="4185" fill="#ff8140"></path><path d="M512.03185778 0c-282.78442667 0-512.03185778 229.24743111-512.03185778 512s229.24743111 512 512 512c282.75143111 0 512-229.24743111 512-512 0-282.75143111-229.21557333-512-511.96814222-512zM756.19214222 664.86385778c-43.74414222 67.29614222-110.94357333 100.67171555-186.01642667 119.07185777-36.32014222 8.96-74.24 11.71228445-93.952 14.7205689-93.08842667-2.304-165.08814222-16.06428445-230.0154311-56.41557334-81.82442667-50.84842667-105.66428445-127.03971555-62.88042667-213.44028444 45.95143111-92.672 117.44028445-161.21628445 211.26371555-205.28014222 17.408-8.16014222 37.21557333-12.8 56.32-15.16771556 39.36028445-4.89585778 62.33543111 17.43985778 61.34442667 57.05614222-0.22414222 8.67214222-2.17656889 17.21571555-2.68743111 25.95157334-0.38343111 7.45585778 0.16042667 15.04028445 0.35157333 22.528 7.64814222-1.24814222 15.36-2.048 22.84771556-3.7125689 30.33656889-6.49557333 60.35228445-17.34428445 90.91185777-18.97585777 53.05571555-2.816 76.83185778 29.31256889 60.70385778 79.71157333-6.94385778 21.47214222-1.76014222 28.70385778 18.30456889 35.90371556 75.45628445 27.19971555 97.18442667 90.91185778 53.504 158.04757333zM716.60771555 382.33543111c-12.48028445-15.872-40.79957333-19.55157333-49.75957333-19.64828444-13.24828445-0.09557333-23.93543111-10.94428445-23.808-24.15957334 0.09557333-13.18456889 10.81571555-23.77614222 23.93543111-23.77614222h0.19228445c5.85614222 0 58.368 1.50414222 87.10371555 37.91985778 11.39256889 14.43157333 23.07185778 40.09642667 13.824 80.03242666-2.56 11.13656889-12.44842667 18.62428445-23.35971555 18.62428445-1.76014222 0-3.55214222-0.22414222-5.376-0.67242667-12.92856889-2.97642667-20.96014222-15.872-17.98371556-28.73571555 4.03228445-17.47171555 2.46442667-30.43214222-4.76842667-39.58442667zM857.69557333 460.8c-1.88757333 11.776-12.032 20.28771555-23.68056888 20.28771555-1.18442667 0-2.49628445-0.16042667-3.74442667-0.35157333-13.056-2.01614222-21.98414222-14.30414222-19.968-27.392 8.89628445-56.60785778-0.16042667-100.63985778-27.04042667-130.72042667-46.78428445-52.41628445-132.54428445-49.31242667-133.40785778-49.31242666-13.37571555 0.54385778-24.44743111-9.69614222-25.02428444-22.87957334-0.54385778-13.21642667 9.75985778-24.41557333 22.94442666-25.02428444 4.44757333-0.16042667 109.44056889-3.84 171.264 65.24814222 36.864 41.37642667 49.85628445 98.62371555 38.656 170.14442667z" p-id="4186" fill="#ff8140"></path></svg>